<svg xmlns="http://www.w3.org/2000/svg" width="382" height="71" viewBox="0 0 382 71">
  <path fill="#FFF" d="M76.56,292.92 L80.96,279.96 L102.16,279.96 L106.24,292.76 L116.88,290.04 L93.28,223.72 L90.88,223.72 L65.92,289.96 L76.56,292.92 Z M99.04,270.04 L84.32,270.04 L91.92,247.4 L99.04,270.04 Z M146.08,291 L146.08,234.36 L162,234.36 L162,224.44 L119.68,224.44 L119.68,234.36 L135.6,234.36 L135.6,291 L146.08,291 Z M206.48,292.76 L214.24,286.12 L195.84,265.32 L212.88,253.16 L171.28,222.84 L168.88,222.84 L168.8,291.08 L179.2,291.08 L179.2,277.4 L187.44,271.24 L206.48,292.76 Z M179.2,266.04 L179.2,240.84 L195.92,253.08 L179.2,266.04 Z M250,292.6 L280.48,257.56 L250,222.76 L248,222.76 L217.44,257.56 L248,292.6 L250,292.6 Z M249.04,278.84 L231.04,257.64 L249.04,236.52 L266.96,257.64 L249.04,278.84 Z M298.08,291 L298.08,275.72 L332.32,253.16 L290.16,222.84 L287.76,222.84 L287.68,291 L298.08,291 Z M298.08,264.28 L298.08,240.36 L315.6,252.92 L298.08,264.28 Z M368.08,292.6 L398.56,257.56 L368.08,222.76 L366.08,222.76 L335.52,257.56 L366.08,292.6 L368.08,292.6 Z M367.12,278.84 L349.12,257.64 L367.12,236.52 L385.04,257.64 L367.12,278.84 Z M414.72,292.84 L446.08,270.92 L418.24,244.92 L439.52,230.92 L433.04,222.76 L402.16,243.96 L430,269.96 L408.56,284.52 L414.72,292.84 Z" transform="translate(-65 -222)"/>
</svg>
