<svg xmlns="http://www.w3.org/2000/svg" width="278" height="58" viewBox="0 0 278 58">
  <path fill="#FFF" d="M201.64,414 C205.213333,414 208.08,413.586667 210.24,412.76 C212.4,411.933333 214.066667,410.693333 215.24,409.04 C216.413333,407.386667 217.186667,405.346667 217.56,402.92 C217.933333,400.493333 218.12,397.68 218.12,394.48 L218.12,394.48 L218.12,374.96 L221.16,374.96 L221.16,394.48 L236.2,394.48 L236.2,374.96 L239.16,374.96 L239.16,394.48 C239.16,397.253333 239.32,399.826667 239.64,402.2 C239.96,404.573333 240.64,406.64 241.68,408.4 C242.72,410.16 244.24,411.533333 246.24,412.52 C248.24,413.506667 250.893333,414 254.2,414 L254.2,414 L258.68,414 L258.68,398.96 L258.68,398.96 L256.96,398.96 C256.4,398.96 255.92,398.866667 255.52,398.68 C255.12,398.493333 254.8,398.2 254.56,397.8 C254.32,397.4 254.2,396.8 254.2,396 L254.2,396 L254.2,374.96 L258.68,374.96 L258.68,359.92 L236.2,359.92 L236.2,356.96 L221.16,356.96 L221.16,359.92 L198.6,359.92 L198.6,374.96 L203.16,374.96 L203.16,396 C203.16,396.8 203.04,397.4 202.8,397.8 C202.56,398.2 202.226667,398.493333 201.8,398.68 C201.373333,398.866667 200.88,398.96 200.32,398.96 L200.32,398.96 L198.6,398.96 L198.6,414 L201.64,414 Z M267.88,414 C269.693333,414 271.426667,413.653333 273.08,412.96 C274.733333,412.266667 276.173333,411.306667 277.4,410.08 C278.626667,408.853333 279.6,407.426667 280.32,405.8 C281.04,404.173333 281.4,402.426667 281.4,400.56 L281.4,400.56 L281.4,394.48 L293.4,394.48 C293.4,396.826667 293.52,399.16 293.76,401.48 C294,403.8 294.586667,405.88 295.52,407.72 C296.453333,409.56 297.813333,411.066667 299.6,412.24 C301.386667,413.413333 303.826667,414 306.92,414 L306.92,414 L312.92,414 L312.92,399.04 L312.92,399.04 L311.16,399.04 C310.626667,399.04 310.146667,398.946667 309.72,398.76 C309.293333,398.573333 308.96,398.266667 308.72,397.84 C308.48,397.413333 308.36,396.8 308.36,396 L308.36,396 L308.36,374.96 L312.92,374.96 L312.92,360 L294.92,360 L294.92,356.96 L279.88,356.96 L279.88,360 L261.8,360 L261.8,374.96 L266.36,374.96 L266.36,396 C266.36,396.8 266.24,397.413333 266,397.84 C265.76,398.266667 265.426667,398.573333 265,398.76 C264.573333,398.946667 264.093333,399.04 263.56,399.04 L263.56,399.04 L261.8,399.04 L261.8,414 L267.88,414 Z M293.4,379.52 L281.4,379.52 L281.4,374.96 L293.4,374.96 L293.4,379.52 Z M335.32,414 L335.32,394.48 L337.08,394.48 C337.613333,397.733333 338.64,400.573333 340.16,403 C341.68,405.426667 343.56,407.453333 345.8,409.08 C348.04,410.706667 350.573333,411.933333 353.4,412.76 C356.226667,413.586667 359.213333,414 362.36,414 L362.36,414 L362.36,400.48 C361.186667,400.48 360.013333,400.386667 358.84,400.2 C357.666667,400.013333 356.56,399.68 355.52,399.2 C354.48,398.72 353.56,398.08 352.76,397.28 C351.96,396.48 351.346667,395.466667 350.92,394.24 C352.573333,394.026667 354.093333,393.52 355.48,392.72 C356.866667,391.92 358.066667,390.92 359.08,389.72 C360.093333,388.52 360.893333,387.173333 361.48,385.68 C362.066667,384.186667 362.36,382.613333 362.36,380.96 L362.36,380.96 L362.36,359.92 L315.8,359.92 L315.8,374.88 L320.28,374.88 L320.28,379.44 L315.8,379.44 L315.8,394.48 L320.28,394.48 L320.28,414 L335.32,414 Z M347.32,380.96 L335.32,380.96 L335.32,374.88 L347.32,374.88 L347.32,380.96 Z M371.48,414 C373.346667,414 375.093333,413.64 376.72,412.92 C378.346667,412.2 379.773333,411.226667 381,410 C382.226667,408.773333 383.2,407.346667 383.92,405.72 C384.64,404.093333 385,402.346667 385,400.48 L385,400.48 L385,359.92 L369.96,359.92 L369.96,396 C369.96,396.8 369.84,397.4 369.6,397.8 C369.36,398.2 369.04,398.48 368.64,398.64 C368.24,398.8 367.76,398.893333 367.2,398.92 C366.64,398.946667 366.066667,398.96 365.48,398.96 L365.48,398.96 L365.48,414 L371.48,414 Z M403.32,414 L403.32,399.68 C404.6,402.4 406.2,404.666667 408.12,406.48 C410.04,408.293333 412.173333,409.76 414.52,410.88 C416.866667,412 419.386667,412.8 422.08,413.28 C424.773333,413.76 427.533333,414 430.36,414 L430.36,414 L430.36,398.96 C428.76,398.96 427.12,398.853333 425.44,398.64 C423.76,398.426667 422.24,397.973333 420.88,397.28 C419.52,396.586667 418.4,395.64 417.52,394.44 C416.64,393.24 416.2,391.626667 416.2,389.6 C416.2,387.36 416.706667,384.88 417.72,382.16 C418.733333,379.44 419.973333,376.72 421.44,374 C422.906667,371.28 424.453333,368.693333 426.08,366.24 C427.706667,363.786667 429.133333,361.68 430.36,359.92 L430.36,359.92 L412.36,359.92 C410.6,362.746667 408.906667,365.653333 407.28,368.64 C405.653333,371.626667 404.333333,374.72 403.32,377.92 L403.32,377.92 L403.32,359.92 L388.28,359.92 L388.28,414 L403.32,414 Z M475.8,414 L475.8,359.92 L433.72,359.92 L433.72,414 L475.8,414 Z M460.76,398.96 L448.76,398.96 L448.76,374.96 L460.76,374.96 L460.76,398.96 Z" transform="translate(-198 -356)"/>
</svg>
