<svg xmlns="http://www.w3.org/2000/svg" width="224" height="224" viewBox="0 0 224 224">
  <g fill="none" fill-rule="evenodd">
    <rect width="224" height="224" fill="#FFF" rx="72"/>
    <path fill="#B53DF5" fill-rule="nonzero" d="M48.1850866,176.35 C56.6307146,176.35 63.4061252,175.378986 68.5113182,173.436957 C73.6165113,171.494928 77.5557035,168.581884 80.3288948,164.697826 C83.1020861,160.813768 84.9298713,156.021342 85.8122503,150.320547 C86.6946294,144.619752 87.1358189,138.010589 87.1358189,130.493058 L87.1358189,130.493058 L87.1358189,84.636115 L94.3209055,84.636115 L94.3209055,130.493058 L129.868176,130.493058 L129.868176,84.636115 L136.864181,84.636115 L136.864181,130.493058 C136.864181,137.008252 137.242344,143.0536 137.998668,148.629102 C138.754993,154.204605 140.362184,159.059677 142.82024,163.19432 C145.278296,167.328962 148.870839,170.555236 153.59787,172.873142 C158.3249,175.191047 164.596094,176.35 172.411451,176.35 L172.411451,176.35 L183,176.35 L183,141.017602 L183,141.017602 L178.934754,141.017602 C177.611185,141.017602 176.476698,140.79834 175.531292,140.359818 C174.585885,139.921295 173.829561,139.232188 173.262317,138.292496 C172.695073,137.352805 172.411451,135.943268 172.411451,134.063885 L172.411451,134.063885 L172.411451,84.636115 L183,84.636115 L183,49.3037167 L129.868176,49.3037167 L129.868176,42.35 L94.3209055,42.35 L94.3209055,49.3037167 L41,49.3037167 L41,84.636115 L51.7776298,84.636115 L51.7776298,134.063885 C51.7776298,135.943268 51.494008,137.352805 50.9267643,138.292496 C50.3595206,139.232188 49.5716822,139.921295 48.563249,140.359818 C47.5548158,140.79834 46.3888149,141.017602 45.0652463,141.017602 L45.0652463,141.017602 L41,141.017602 L41,176.35 L48.1850866,176.35 Z"/>
  </g>
</svg>
