<svg width="200" height="122" viewBox="0 0 200 122" fill="none" xmlns="http://www.w3.org/2000/svg">
<path d="M25.2395 13.0569L26.2132 13H172.367L25.2395 13.0569ZM172.367 13L173.341 13.0569L174.287 13.2228L172.367 13ZM25.2395 13.0569L172.367 13L174.287 13.2228L25.2395 13.0569ZM23.3829 13.4903L24.2931 13.2228L25.2395 13.0569L23.3829 13.4903ZM174.287 13.2228L175.198 13.4903L176.063 13.8522L174.287 13.2228ZM21.7068 14.3014L25.2395 13.0569L174.287 13.2228L21.7068 14.3014ZM21.7068 14.3014L23.3829 13.4903L25.2395 13.0569L21.7068 14.3014ZM21.7068 14.3014L22.5177 13.8522L23.3829 13.4903L21.7068 14.3014ZM174.287 13.2228L176.063 13.8522L177.621 14.8308L174.287 13.2228ZM176.063 13.8522L176.874 14.3014L177.621 14.8308L176.063 13.8522ZM20.2845 15.4333L20.9593 14.8308L21.7068 14.3014L20.2845 15.4333ZM21.7068 14.3014L174.287 13.2228L179.79 17.608L21.7068 14.3014ZM174.287 13.2228L177.621 14.8308L179.79 17.608L174.287 13.2228ZM177.621 14.8308L178.296 15.4333L178.889 16.1018L177.621 14.8308ZM19.1907 16.829L20.2845 15.4333L21.7068 14.3014L19.1907 16.829ZM19.1907 16.829L19.6918 16.1018L20.2845 15.4333L19.1907 16.829ZM177.621 14.8308L178.889 16.1018L179.79 17.608L177.621 14.8308ZM178.889 16.1018L179.39 16.829L179.79 17.608L178.889 16.1018ZM18.5018 18.4315L18.7908 17.608L19.1907 16.829L18.5018 18.4315ZM179.79 17.608L180.079 18.4315L180.247 19.2922L179.79 17.608ZM7.12715 113.285L19.1907 16.829L21.7068 14.3014L7.12715 113.285ZM7.12715 113.285L18.5018 18.4315L19.1907 16.829L7.12715 113.285ZM7.12715 113.285L18.3336 19.2922L18.5018 18.4315L7.12715 113.285ZM179.79 17.608L180.247 19.2922L191.512 114.403L179.79 17.608ZM21.7068 14.3014L179.79 17.608L14.4157 121.604L21.7068 14.3014ZM7.75368 117.461L7.12715 113.285L21.7068 14.3014L7.75368 117.461ZM180.247 19.2922L191.453 113.285L191.512 114.403L180.247 19.2922ZM179.79 17.608L191.512 114.403L190.339 118.347L179.79 17.608ZM14.4157 121.604L7.75368 117.461L21.7068 14.3014L14.4157 121.604ZM179.79 17.608L190.339 118.347L14.4157 121.604L179.79 17.608ZM7.15899 115.479L7.06868 114.403L7.12715 113.285L7.15899 115.479ZM7.75368 117.461L7.15899 115.479L7.12715 113.285L7.75368 117.461ZM191.512 114.403L191.421 115.479L191.19 116.502L191.512 114.403ZM191.512 114.403L191.19 116.502L190.339 118.347L191.512 114.403ZM7.75368 117.461L7.39004 116.502L7.15899 115.479L7.75368 117.461ZM191.19 116.502L190.827 117.461L190.339 118.347L191.19 116.502ZM8.84562 119.149L8.24168 118.347L7.75368 117.461L8.84562 119.149ZM10.367 120.458L8.84562 119.149L7.75368 117.461L10.367 120.458ZM190.339 118.347L189.735 119.149L189.023 119.856L190.339 118.347ZM190.339 118.347L189.023 119.856L187.313 120.944L190.339 118.347ZM10.367 120.458L9.55696 119.856L8.84562 119.149L10.367 120.458ZM14.4157 121.604L10.367 120.458L7.75368 117.461L14.4157 121.604ZM190.339 118.347L187.313 120.944L14.4157 121.604L190.339 118.347ZM189.023 119.856L188.213 120.458L187.313 120.944L189.023 119.856ZM12.2479 121.304L11.267 120.944L10.367 120.458L12.2479 121.304ZM14.4157 121.604L12.2479 121.304L10.367 120.458L14.4157 121.604ZM187.313 120.944L186.333 121.304L185.28 121.528L187.313 120.944ZM187.313 120.944L185.28 121.528L14.4157 121.604L187.313 120.944ZM14.4157 121.604L13.3005 121.528L12.2479 121.304L14.4157 121.604ZM185.28 121.528L184.165 121.604H14.4157L185.28 121.528Z" fill="#6F03A8"/>
<path d="M24.6282 0.0514145L25.6159 0H173.471L24.6282 0.0514145ZM173.471 0L174.459 0.0514145L175.424 0.201248L173.471 0ZM24.6282 0.0514145L173.471 0L175.424 0.201248L24.6282 0.0514145ZM22.7293 0.442997L23.663 0.201248L24.6282 0.0514145L22.7293 0.442997ZM175.424 0.201248L176.358 0.442997L177.251 0.770218L175.424 0.201248ZM20.9938 1.17657L24.6282 0.0514145L175.424 0.201248L20.9938 1.17657ZM20.9938 1.17657L22.7293 0.442997L24.6282 0.0514145L20.9938 1.17657ZM20.9938 1.17657L21.8364 0.770218L22.7293 0.442997L20.9938 1.17657ZM175.424 0.201248L177.251 0.770218L178.876 1.65573L175.424 0.201248ZM177.251 0.770218L178.094 1.17657L178.876 1.65573L177.251 0.770218ZM19.4976 2.20142L20.2109 1.65573L20.9938 1.17657L19.4976 2.20142ZM20.9938 1.17657L175.424 0.201248L181.213 4.1745L20.9938 1.17657ZM175.424 0.201248L178.876 1.65573L181.213 4.1745L175.424 0.201248ZM178.876 1.65573L179.59 2.20142L180.224 2.80732L178.876 1.65573ZM18.3191 3.46713L19.4976 2.20142L20.9938 1.17657L18.3191 3.46713ZM18.3191 3.46713L18.8637 2.80732L19.4976 2.20142L18.3191 3.46713ZM178.876 1.65573L180.224 2.80732L181.213 4.1745L178.876 1.65573ZM180.224 2.80732L180.768 3.46713L181.213 4.1745L180.224 2.80732ZM17.539 4.92301L17.8741 4.1745L18.3191 3.46713L17.539 4.92301ZM181.213 4.1745L181.548 4.92301L181.763 5.70619L181.213 4.1745ZM0.136543 96.5867L18.3191 3.46713L20.9938 1.17657L0.136543 96.5867ZM0.136543 96.5867L17.539 4.92301L18.3191 3.46713L0.136543 96.5867ZM0.136543 96.5867L17.3243 5.70619L17.539 4.92301L0.136543 96.5867ZM181.213 4.1745L181.763 5.70619L199.087 97.7361L181.213 4.1745ZM20.9938 1.17657L181.213 4.1745L7.4925 105.177L20.9938 1.17657ZM0.539406 100.888L0.136543 96.5867L20.9938 1.17657L0.539406 100.888ZM181.763 5.70619L198.951 96.5867L199.087 97.7361L181.763 5.70619ZM181.213 4.1745L199.087 97.7361L198.078 101.803L181.213 4.1745ZM7.4925 105.177L0.539406 100.888L20.9938 1.17657L7.4925 105.177ZM181.213 4.1745L198.078 101.803L7.4925 105.177L181.213 4.1745ZM0.0267563 98.8433L0 97.7361L0.136543 96.5867L0.0267563 98.8433ZM0.539406 100.888L0.0267563 98.8433L0.136543 96.5867L0.539406 100.888ZM199.087 97.7361L199.061 98.8433L198.878 99.8974L199.087 97.7361ZM199.087 97.7361L198.878 99.8974L198.078 101.803L199.087 97.7361ZM0.539406 100.888L0.209167 99.8974L0.0267563 98.8433L0.539406 100.888ZM198.878 99.8974L198.548 100.888L198.078 101.803L198.878 99.8974ZM1.61104 102.632L1.00945 101.803L0.539406 100.888L1.61104 102.632ZM3.17485 103.988L1.61104 102.632L0.539406 100.888L3.17485 103.988ZM198.078 101.803L197.476 102.632L196.752 103.364L198.078 101.803ZM198.078 101.803L196.752 103.364L194.968 104.492L198.078 101.803ZM3.17485 103.988L2.33575 103.364L1.61104 102.632L3.17485 103.988ZM7.4925 105.177L3.17485 103.988L0.539406 100.888L7.4925 105.177ZM198.078 101.803L194.968 104.492L7.4925 105.177L198.078 101.803ZM196.752 103.364L195.912 103.988L194.968 104.492L196.752 103.364ZM5.1602 104.865L4.1194 104.492L3.17485 103.988L5.1602 104.865ZM7.4925 105.177L5.1602 104.865L3.17485 103.988L7.4925 105.177ZM194.968 104.492L193.927 104.865L192.8 105.097L194.968 104.492ZM194.968 104.492L192.8 105.097L7.4925 105.177L194.968 104.492ZM7.4925 105.177L6.2878 105.097L5.1602 104.865L7.4925 105.177ZM192.8 105.097L191.595 105.177H7.4925L192.8 105.097Z" fill="white"/>
<path d="M117.234 61.0414L99.6332 34.6419V17L117.234 61.0414ZM99.6332 34.6419L57 75.4821L99.6332 17V34.6419ZM99.6332 17L142.266 75.4821L117.234 61.0414L99.6332 17ZM99.6332 34.6419L82.0328 61.0414L57 75.4821L99.6332 34.6419ZM142.266 75.4821L82.0328 61.0414H117.234L142.266 75.4821ZM142.266 75.4821H57L82.0328 61.0414L142.266 75.4821Z" fill="#6F03A8"/>
<path d="M95.6962 24.3677L51 75.2599L95.6962 4V24.3677ZM115.854 52.7083L95.6962 24.3677V4L115.854 52.7083ZM95.6962 24.3677L76.5717 56.8744L51 75.2599L95.6962 24.3677ZM95.6962 4L146.474 67.2669L115.854 52.7083L95.6962 4ZM146.474 67.2669L51 75.2599L76.5717 56.8744L146.474 67.2669ZM146.474 67.2669L76.5717 56.8744L115.854 52.7083L146.474 67.2669Z" fill="#B53DF5"/>
</svg>
