<svg xmlns="http://www.w3.org/2000/svg" width="526" height="656" viewBox="0 0 526 656">
  <g fill="none" fill-rule="evenodd">
    <rect width="526" height="72" fill="#FFF"/>
    <g fill="#000" fill-rule="nonzero" transform="translate(17 11)">
      <path d="M24.1247394,0.334090909 L24.1247394,23.2193182 C24.1247394,39.6176136 24.2084997,45.7982955 24.4318605,45.9653409 C24.599381,46.0488636 25.2694632,46.2994318 25.9116253,46.4943182 C26.5258673,46.6892045 27.5030705,46.9954545 28.0335523,47.1903409 C28.564034,47.3852273 29.764598,47.775 30.685961,48.0255682 C31.607324,48.3039773 32.6403674,48.6380682 33.0033286,48.7494318 C33.3662898,48.8886364 33.7571711,49 33.8967716,49 C34.0642921,49 34.1759725,41.7056818 34.1759725,29.5670455 C34.1759725,11.6375 34.2038926,10.0784091 34.6785341,9.1875 C35.0973355,8.32443182 35.2648561,8.21306818 36.1862191,8.24090909 C36.9121415,8.26875 37.386783,8.46363636 37.7776643,8.93693182 C38.3081461,9.57727273 38.3360662,10.0505682 38.3639862,18.4306818 L38.3639862,27.25625 L39.6483105,27.8409091 C41.630637,28.7039773 44.7018471,28.6204545 46.3491325,27.6738636 C48.8340207,26.2261364 50.0904248,23.2193182 50.0904248,18.68125 C50.0904248,14.0318182 49.0294613,10.8857955 46.6004133,8.46363636 C45.2602489,7.09943182 42.0494384,5.01136364 41.323516,5.01136364 C41.1280753,5.01136364 40.737194,4.81647727 40.430073,4.59375 C40.1508721,4.37102273 39.6762306,4.17613636 39.4249497,4.17613636 C39.1457488,4.17613636 38.5315068,4.00909091 38.0289451,3.78636364 C36.6050205,3.20170455 35.2648561,2.75625 34.1759725,2.50568182 C33.6454907,2.39431818 32.8358081,2.14375 32.3611665,2.00454545 C30.3229998,1.30852273 25.213623,0 24.599381,0 C24.3481002,0 24.1247394,0.167045455 24.1247394,0.334090909 L24.1247394,0.334090909 Z M80.579165,10.0784091 C80.1603636,10.4960227 80.1324435,12.0272727 80.579165,12.4727273 C80.8304458,12.7232955 84.850939,12.8068182 96.9403388,12.8068182 C108.331736,12.8068182 113.329433,12.8903409 114.139115,13.1409091 C117.657047,14.1153409 118.857611,18.6534091 116.205202,21.0477273 C114.529997,22.5789773 114.865038,22.5511364 100.20699,22.5511364 L86.6378249,22.5511364 L85.1580601,23.2193182 C84.236697,23.6369318 83.2036536,24.4443182 82.4218911,25.3073864 C80.6070851,27.3954545 80.1882837,29.2607955 80.2999641,34.8011364 L80.3837244,39.1164773 L86.8053455,39.1164773 L86.9449459,33.8267045 C87.0845464,28.0079545 87.1683067,27.7852273 88.9551925,26.4210227 L89.8765556,25.7528409 L103.976202,25.5857955 C111.737987,25.5022727 118.382969,25.3352273 118.773851,25.1960227 C120.672417,24.5556818 122.235942,23.0801136 123.380666,20.8806818 C124.162428,19.3772727 124.078668,15.8414773 123.241065,14.2267045 C122.431383,12.6954545 121.063298,11.33125 119.527693,10.5238636 L118.355049,9.88352273 L99.6485877,9.8 C85.0463797,9.74431818 80.8583659,9.8 80.579165,10.0784091 L80.579165,10.0784091 Z M148.369148,9.99488636 C146.917303,10.3011364 145.632979,11.0528409 144.348655,12.3613636 C142.338408,14.4215909 142.226728,15.1454545 142.226728,24.4443182 L142.226728,32.5738636 L141.556645,33.6596591 C141.165764,34.2443182 140.439842,35.0238636 139.93728,35.3857955 C139.015917,36.0539773 138.932157,36.0539773 130.91909,36.1375 C126.479796,36.1653409 122.654743,36.1931818 122.487223,36.1931818 C122.235942,36.1931818 122.124262,36.6943182 122.124262,37.7244318 L122.124262,39.2556818 L132.287175,39.2556818 C143.148091,39.2556818 143.120171,39.2556818 145.325858,37.7801136 C146.219301,37.1954545 147.754906,35.0795455 148.173707,33.8823864 C148.341228,33.3534091 148.536668,29.4556818 148.620429,24.3051136 L148.787949,15.61875 L149.876833,14.5051136 C150.463155,13.9204545 151.272837,13.3357955 151.691639,13.1965909 C152.08252,13.0852273 156.130933,12.9181818 160.653988,12.8346591 L168.890415,12.6676136 L168.890415,9.88352273 L159.118383,9.85568182 C153.757726,9.82784091 148.89963,9.88352273 148.369148,9.99488636 L148.369148,9.99488636 Z M175.730838,10.1619318 C175.507477,10.4403409 175.423717,12.1664773 175.507477,16.6210227 C175.591237,23.3585227 175.619157,23.4142045 177.657324,24.80625 L178.606607,25.4744318 L193.850977,25.6136364 C208.509026,25.7528409 209.123268,25.7806818 209.93295,26.3096591 C211.887357,27.6181818 212.585359,28.8710227 212.585359,31.0426136 C212.585359,33.0193182 211.831516,34.3 209.90503,35.5528409 C209.179108,36.0261364 208.034384,36.0539773 192.622493,36.1375 C183.576384,36.1653409 175.982119,36.2488636 175.786678,36.3323864 C175.535397,36.4159091 175.451637,36.8892045 175.507477,37.7801136 L175.591237,39.1164773 L194.018498,39.2 C214.539765,39.2835227 213.339201,39.3670455 215.87993,37.3625 C220.040023,34.0494318 220.040023,27.7295455 215.87993,24.4443182 C213.367121,22.4676136 214.176804,22.5511364 197.983151,22.5511364 C186.954715,22.5232955 183.297183,22.4397727 182.990062,22.1892045 C181.761578,21.2426136 181.594057,20.6022727 181.594057,16.9829545 C181.594057,14.6164773 181.705737,13.3636364 181.929098,13.1409091 C182.180379,12.8903409 186.563833,12.8068182 199.909637,12.8068182 C215.740329,12.8068182 217.555135,12.7511364 217.722656,12.3613636 C218.001857,11.6375 217.918096,10.4403409 217.555135,10.0784091 C217.303854,9.82784091 212.278238,9.74431818 196.642987,9.74431818 C178.997489,9.74431818 176.037959,9.8 175.730838,10.1619318 L175.730838,10.1619318 Z M20.3555271,28.175 C19.9088056,28.3420455 19.1549631,28.6204545 18.6803215,28.8153409 C18.2336001,29.0102273 17.591438,29.2329545 17.284317,29.3164773 C16.9771959,29.4 16.0279128,29.7340909 15.1903101,30.0681818 C14.3527073,30.4022727 13.2917438,30.7642045 12.8171023,30.9034091 C12.3703808,31.0426136 11.2814972,31.4045455 10.4438945,31.7386364 C9.60629172,32.0448864 8.15444695,32.5738636 7.23308392,32.8801136 C1.95618657,34.6897727 -0.584541779,36.7221591 0.113460515,38.5596591 C0.616022167,39.9238636 2.40290804,41.1488636 4.72027566,41.7613636 C5.19491722,41.9005682 5.9487597,42.1232955 6.39548116,42.2903409 C9.01996979,43.18125 11.7840589,43.4875 16.390874,43.3761364 C22.0307326,43.2647727 21.8911321,43.3482955 21.8911321,40.0352273 C21.8911321,37.4460227 21.9190522,37.4460227 19.3783238,38.4204545 C15.8045521,39.7846591 14.268947,40.1465909 12.5099813,40.0352273 C10.4718146,39.8960227 9.43877117,39.2556818 9.88549264,38.3926136 C10.0530132,38.1142045 10.5834949,37.7801136 11.0860566,37.6130682 C11.5606981,37.4738636 12.6775018,37.0840909 13.5151046,36.75 C14.3527073,36.4159091 15.3578306,36.0818182 15.7487119,35.9982955 C16.1395932,35.9147727 16.5863147,35.7198864 16.7817553,35.5806818 C16.9771959,35.4136364 17.5355978,35.1909091 18.0381594,35.0795455 C19.6575248,34.6619318 21.4723307,33.9380682 21.6677714,33.6039773 C21.9190522,33.2142045 21.9748924,28.8988636 21.7236115,28.2863636 C21.5281709,27.7852273 21.5281709,27.7852273 20.3555271,28.175 L20.3555271,28.175 Z"/>
      <path d="M43.5797825,30.2894715 C41.4413532,30.5996878 38.7820244,31.2765233 37.8224728,31.7559484 C37.1644946,32.0661647 37.1370788,32.1789706 37.1370788,35.0273199 C37.1370788,38.4396988 37.0822473,38.3832958 39.741576,37.2834382 C40.5640488,36.9450204 41.6332635,36.5784012 42.0719156,36.4373938 C42.5379836,36.2963864 43.5797825,35.9297672 44.4022553,35.5913495 C45.2247281,35.2529317 46.2939427,34.8863125 46.7325949,34.7735066 C47.1986628,34.6607007 47.8292253,34.4068874 48.1582144,34.2376785 C48.4872035,34.0402681 49.9402388,33.8992608 51.5029372,33.8992608 C54.0251871,33.8992608 54.2719289,33.9556637 54.5735023,34.4914918 C54.7928284,34.9709169 54.7928284,35.1683273 54.491255,35.4785435 C54.0800186,35.9015657 51.6126002,36.9450204 50.4337225,37.1988337 C50.0499019,37.2834382 49.6386655,37.452647 49.4741709,37.565453 C49.3370921,37.6782589 48.7613611,37.9320722 48.2404617,38.0730796 C47.7195622,38.2422884 46.5955161,38.6371091 45.7730433,38.9755269 C44.9505705,39.3139446 43.9087716,39.6805638 43.4427037,39.8215712 C43.0040515,39.9625786 41.9348368,40.3291978 41.112364,40.6676156 C40.2898912,41.0060333 39.1932608,41.3726526 38.6997771,41.5136599 C37.109663,41.9084806 37,42.162294 37,45.2080536 C37,47.9717985 37,48 37.6579782,48 C38.0417989,48 38.3982038,47.8871941 38.4804511,47.7461867 C38.5626983,47.6051793 38.9739347,47.4359704 39.3851711,47.351366 C39.8238233,47.2667616 40.6462961,47.0129483 41.2494428,46.7591349 C41.8525896,46.5335231 43.0314672,46.054098 43.8539401,45.7438817 C44.6764129,45.405464 45.7456275,45.0388448 46.1842797,44.8978374 C46.6503476,44.75683 47.6921465,44.3902108 48.5146193,44.051793 C51.4206899,42.8955324 52.2157469,42.6135176 53.0382197,42.3597043 C53.5042877,42.2468984 54.5460865,41.8520777 55.3685593,41.5136599 C56.1910322,41.1752422 57.1779995,40.808623 57.5618202,40.6676156 C63.0175565,38.7217136 64.9914912,36.6912071 63.5384559,34.4632903 C62.4418255,32.7712016 58.0278881,30.966307 53.2301301,30.26127 C50.9272062,29.8946508 46.1294482,29.9228523 43.5797825,30.2894715 L43.5797825,30.2894715 Z"/>
    </g>
  </g>
</svg>
