<svg xmlns="http://www.w3.org/2000/svg" width="526" height="656" viewBox="0 0 526 656">
  <g fill="none" fill-rule="evenodd" transform="translate(369 605)">
    <path fill="#2D4F9E" fill-rule="nonzero" d="M125.998643,6.60045343 L126.000002,6.60045343 C126.689952,6.6009418 127.351696,6.32659941 127.838995,5.83805191 C128.326223,5.35127695 128.600161,4.69084032 128.600545,4.0020384 L128.600545,3.99728189 C128.601085,3.30791132 128.327582,2.64661014 127.840297,2.15908766 C127.353013,1.67156518 126.691933,1.39782706 126.002719,1.39818576 L125.997285,1.39818576 C125.307784,1.39727943 124.646388,1.67143577 124.15965,2.15990938 C123.672296,2.64659963 123.398335,3.30709117 123.398101,3.99592289 L123.398101,4.0006794 C123.398391,4.69009859 123.672303,5.35120328 124.15965,5.83873141 L124.161009,5.83873141 C124.646792,6.32613991 125.306494,6.60020188 125.994567,6.60045343 L125.998643,6.60045343 L125.998643,6.60045343 Z M126.000002,7.00000002 L125.994567,7.00000002 C125.200521,6.99982851 124.439158,6.68372387 123.8784,6.1214041 L123.879759,6.1214041 C123.315788,5.56020996 122.999105,4.79706324 123.000002,4.0013589 L123.000002,3.99660239 C123.000002,3.17032836 123.335601,2.42219702 123.877041,1.87995469 C124.438914,1.3166438 125.20175,1.00000002 125.997285,1.00000002 L126.002719,1.00000002 C126.796683,0.999916335 127.55806,1.31578221 128.118886,1.87791619 C128.682885,2.43948023 129.000002,3.20265505 129.000002,3.99864089 L129.000002,4.00339741 C128.999486,4.79775505 128.683519,5.55937618 128.121604,6.1207246 L128.121604,6.1214041 C127.558922,6.68416953 126.795723,7.00022455 126.000002,7.00000002 L126.000002,7.00000002 Z"/>
    <path fill="#2D4F9E" d="M124.282173,1.22990312 L126.331132,1.22990312 C127.409647,1.22990312 127.65961,2.19124912 127.65961,2.54170142 C127.65961,2.98954257 127.299369,3.50968756 126.900164,3.6469173 L128,5.10258549 L127.089842,5.10258549 L126.178213,3.75758645 L125.114402,3.75758645 L125.114402,5.10258549 L124.282908,5.10258549 L124.282908,1.22990312 L124.282173,1.22990312 L124.282173,1.22990312 Z M126.267906,3.01905434 C126.490667,3.01905434 126.895753,2.94748829 126.895753,2.54539039 C126.895753,2.18534676 126.809737,2.01270289 126.331132,2.01270289 L125.113666,2.01270289 L125.113666,3.01831655 L126.267906,3.01831655 L126.267906,3.01905434 L126.267906,3.01905434 Z M21.5041412,5.47222044 L15.7527943,11.5693527 L11.9540969,8.9560852 C11.9540969,8.9560852 13.2039103,7.75864502 12.0636394,6.88730994 C11.1748016,6.20780137 8.68032118,7.64945147 8.78839328,10.481106 C8.91484498,13.7465837 10.9255741,15.5969718 13.1473011,15.5969718 C15.2102283,15.5969718 15.7520591,13.9273433 15.7520591,13.9273433 L20.3741629,13.9273433 L20.3741629,17.7756784 L26.8731922,0.571790595 L34.3059056,0.571790595 L40.2741319,16.0344839 C40.2741319,16.0344839 40.7078906,16.8490088 41.1416493,17.0673959 L41.1666456,6.63941105 C41.1666456,6.35609803 41.1291512,6.04179765 40.9519718,5.83816642 C40.6608388,5.50173221 40.1653246,5.36228909 40.1653246,5.36228909 L40.1653246,0.5710528 L50.5806807,0.5710528 C55.9828151,0.5710528 57.3686375,2.04147687 58.9353153,4.87239366 C61.0974923,1.95072817 64.0749888,0.0272983897 68.319943,0.0272983897 C72.687673,0.0272983897 75.7791231,1.64233015 77.5443006,4.32790146 C80.0101088,1.37082184 83.975693,0 87.6075035,0 C92.0686019,0 95.7967215,2.16985308 97.7236396,5.52607943 L97.7236396,0.571790595 L107.760376,0.571790595 L108.817571,3.26547764 L109.605688,0.571790595 L119.965906,0.571790595 L119.965906,5.25309553 C119.965906,5.25309553 119.369671,5.41762366 119.20499,5.68691859 C119.042514,5.95400013 119.071187,6.80541477 119.071187,6.80541477 L120.517294,16.0580933 C120.577579,16.3591134 120.684181,16.6734137 120.942231,16.9036056 C121.242186,17.1721627 121.647272,17.1219927 121.647272,17.1219927 L121.647272,22.4562456 L111.232651,22.4562456 L111.232651,18.4271508 L105.26516,18.4271508 L105.26516,22.4673125 L95.4725053,22.4673125 L95.4725053,19.8415025 C95.4725053,19.8415025 91.8943632,23 87.2818168,23 C81.379022,23 77.434023,18.6455379 77.434023,18.6455379 L77.434023,22.4562456 L70.4916775,22.4562456 C64.3131885,22.4562456 59.0073633,19.0616539 57.5259669,12.8745108 C56.8231307,13.548117 53.7265344,15.7681401 50.0116481,16.6047989 C49.7227206,16.6697248 49.5786245,16.7774427 49.5786245,17.0924809 C49.5786245,17.6657471 50.7990305,17.8708539 50.7990305,17.8708539 L50.7990305,22.4569834 L12.7172182,22.4569834 C5.66533032,22.4569834 0,17.6126259 0,11.4601591 C0,5.3084301 4.41698735,0.0811573747 11.7401583,0.0811573747 C18.7369074,0.0811573747 21.5041412,5.47222044 21.5041412,5.47222044 L21.5041412,5.47222044 Z"/>
    <path fill="#F2CA30" d="M18.8171651,5.50288496 L15.7477158,8.76190289 C15.7477158,8.76190289 15.5849643,8.84542921 15.4487243,8.84542921 C15.3124844,8.84542921 15.1224849,8.70671586 15.1224849,8.70671586 L14.7424859,8.37857676 C14.7424859,8.37857676 14.6334939,8.35098324 14.6334939,8.23986341 C14.6334939,8.13098088 14.9324854,7.85429996 14.9324854,7.3315147 C14.9324854,6.80798367 14.8242299,4.63480787 11.5102851,4.63480787 C8.19560387,4.63480787 6.72789455,7.77151941 6.72789455,10.358598 C6.72789455,12.9449307 8.30312297,17.6775916 13.4669854,17.6775916 C16.4701558,17.6775916 17.1056967,15.9705224 17.1056967,15.9705224 L18.1381746,15.9705224 L18.1381746,20.4287396 L12.4875306,20.4287396 C5.74991263,20.4287396 2,15.090513 2,11.2386074 C2,5.33284924 7.07107195,2.0559328 11.6723002,2.0559328 C16.1277148,2.0559328 18.8171651,5.50288496 18.8171651,5.50288496 L18.8171651,5.50288496 Z M28.3274502,2.54515838 L32.9736008,2.54515838 L38.6257177,17.5127762 C38.7877328,17.9244417 39.0594763,18.3114966 39.3312197,18.6403815 C39.6014903,18.9707579 40.2539692,19.1922518 40.2539692,19.1922518 L40.2539692,20.4839267 L33.4360802,20.4839267 L33.4360802,19.1631668 C33.4360802,19.1631668 33.8691023,19.2198454 34.0878227,18.8335361 C34.3050701,18.4479727 34.3050701,18.1459355 34.1423186,17.7611179 C33.9795671,17.3755544 32.835888,14.3223692 32.835888,14.3223692 L27.2677243,14.3223692 C27.2677243,14.3223692 26.1269909,17.4038937 26.0172625,17.6790831 C25.9082705,17.9527809 25.9082705,18.395023 26.0172625,18.667975 C26.1984248,19.1258782 26.8332293,19.1929976 26.8332293,19.1929976 L26.8332293,20.4846724 L21.3711119,20.4846724 L21.3711119,19.1929976 C21.3711119,19.1929976 21.8682036,19.0199788 22.2408383,18.6411273 C22.4820167,18.4008919 22.6671918,18.1091606 22.7828524,17.7872198 L28.3274502,2.54515838 L28.3274502,2.54515838 Z M28.1904738,11.5145425 L31.7783714,11.5145425 L29.930663,6.28743573 L28.1904738,11.5145425 Z M42.427917,2.54515838 L51.1229717,2.54515838 C54.3293974,2.54515838 57.5343502,3.69886564 57.5343502,7.44114299 C57.5343502,11.1834203 55.1976509,12.504926 53.1879275,13.4408682 C50.8674297,14.5207442 47.8082905,15.3671939 47.8082905,15.3671939 L47.8082905,18.2279703 C47.8082905,18.2279703 47.8355385,18.4211249 48.1065455,18.749264 C48.3797618,19.0796405 48.6780169,19.1631668 48.6780169,19.1631668 L48.6780169,20.4839267 L42.373421,20.4831809 L42.373421,19.1922518 C42.373421,19.1922518 42.75342,19.1094713 43.0266364,18.8335361 C43.2976434,18.5583467 43.3528758,18.2279703 43.3528758,18.2279703 L43.3528758,5.29630647 C43.3528758,5.29630647 43.378651,4.74518193 43.1621399,4.52592534 C42.9448924,4.30443145 42.427917,4.00239432 42.427917,4.00239432 L42.427917,2.54515838 L42.427917,2.54515838 Z M47.86205,5.24111944 L47.86205,12.8897437 C47.86205,12.8897437 52.9692071,10.7441614 52.9692071,7.71782392 C52.9692071,3.97554657 47.86205,5.24111944 47.86205,5.24111944 L47.86205,5.24111944 Z M76.3641844,5.53495309 L73.2932623,8.79397103 C73.2932623,8.79397103 73.1305108,8.87600581 72.9942708,8.87600581 C72.8587673,8.87600581 72.6680314,8.73803823 72.6680314,8.73803823 L72.2880324,8.40766181 C72.2880324,8.40766181 72.1790404,8.38155984 72.1790404,8.27193155 C72.1790404,8.16155748 72.4780319,7.88413078 72.4780319,7.36432861 C72.4780319,6.84005181 72.3712492,4.66687601 69.056568,4.66687601 C65.7418868,4.66687601 64.2727046,7.80284178 64.2727046,10.3891745 C64.2727046,12.9747615 65.8494059,17.7081682 71.0125318,17.7081682 C74.0157022,17.7081682 74.6512432,16.0018448 74.6512432,16.0018448 L75.685194,16.0018448 L75.685194,20.4593162 L70.0323406,20.4593162 C63.2954591,20.4593162 59.54481,15.1218354 59.54481,11.2699297 C59.54481,5.36417161 64.615882,2.0865094 69.2185831,2.0865094 C73.6732613,2.0865094 76.3641844,5.53495309 76.3641844,5.53495309 Z M87.3694268,21 C81.499326,21 77.2810425,16.6603603 77.2810425,11.3788123 C77.2810425,6.09353535 81.6075815,2 87.3694268,2 C93.1268536,2 97.4548654,6.09353535 97.4548654,11.3788123 C97.4548654,16.6603603 93.2343727,21 87.3694268,21 Z M82.1510685,11.4593555 C82.1510685,16.7423951 84.8132708,18.0624092 87.3694268,18.0624092 C89.9211643,18.0624092 92.6393355,16.4112729 92.6393355,11.4593555 C92.6393355,6.50743808 89.5956613,4.85630176 87.3694268,4.85630176 C85.1395102,4.85630176 82.1510685,6.17631589 82.1510685,11.4593555 Z M100.082455,2.55709071 L106.549066,2.55709071 L108.886502,9.86415198 L111.385216,2.54590415 L118.150082,2.54590415 L118.150082,3.61757664 C118.150082,3.61757664 117.700122,3.81073125 117.499813,4.05832712 C117.255317,4.36185579 117.255317,4.58111238 117.309813,5.02260863 C117.362836,5.46186757 119.102289,17.4038937 119.156785,17.8431526 C119.211281,18.2839031 119.264304,18.531499 119.374033,18.8335361 C119.481552,19.1340817 120,19.3824234 120,19.3824234 L120,20.4928759 L113.506141,20.4928759 L113.506141,19.3011344 C113.506141,19.3011344 114.075403,19.2198454 114.266876,18.9424187 C114.456875,18.6672293 114.537146,18.5024139 114.484123,18.0624092 C114.429627,17.6224045 112.881647,7.60670409 112.881647,7.60670409 L110.05522,16.4664599 L106.632283,16.4664599 L103.833104,8.15559132 L102.420628,17.9512894 C102.420628,17.9512894 102.366132,18.5397025 102.583379,18.8603839 C102.882371,19.3011344 103.42733,19.3011344 103.42733,19.3011344 L103.42733,20.4839267 L97.8002521,20.4839267 L97.8002521,19.2198454 C97.8002521,19.2198454 98.2487393,19.1489971 98.5757152,18.7641795 C98.9004818,18.3801075 98.9557142,17.8826785 98.9557142,17.8826785 L101.008151,4.96593005 C101.008151,4.96593005 101.130398,4.48341641 100.993422,4.26415983 C100.851291,4.03222514 100.083192,3.83832476 100.083192,3.83832476 L100.083192,2.55709071 L100.082455,2.55709071 L100.082455,2.55709071 Z"/>
  </g>
</svg>
