<svg xmlns="http://www.w3.org/2000/svg" width="526" height="656" viewBox="0 0 526 656">
  <g fill="none" transform="translate(451 576)">
    <path fill="#000" d="M0,0 C12.4053887,0.00820282987 24.8107774,0.00129518366 37.2161661,0.0034538231 C39.4639989,0.000863455776 41.7118316,0.00820282987 43.9596644,0 C43.9579107,9.99924962 43.9785169,19.9984992 43.9780785,29.9977488 C43.9881624,33.9981395 43.9947388,37.9989618 44,41.9993524 C29.3345025,42 14.669005,42 0.00350744335,41.9993524 C0.00394587377,32.2859067 0.00350744335,22.5724609 0.00350744335,12.8590151 C0.00131529126,8.57282067 0.00833017796,4.28619447 0,0"/>
    <path fill="#FFF" d="M0 0C12.4053887.00820286149 24.8107774.00129518866 37.2161661.00345383642 39.4639989.000863459105 41.7118316.00820286149 43.9596644 0 43.9579107 9.99928816 43.9785169 19.9985763 43.9780785 29.9978645 43.9881624 33.9982705 43.9947388 37.9991083 44 41.9995143 29.3345025 42.0001619 14.669005 42.0001619.00350744335 41.9995143.00394587377 32.2860311.00350744335 22.5725479.00350744335 12.8590647.00131529126 8.57285372.00833017796 4.28621099 0 0M17.8340342 8.40534265C17.8322804 16.2416658 17.8362263 24.0784206 17.8322804 31.9147437 19.6241456 32.4785825 21.4221487 33.0242886 23.2109448 33.5976255 23.2087527 27.273651 23.2105064 20.9496765 23.210068 14.6261338 23.2135754 14.2177176 23.1920923 13.8049842 23.2644333 13.4008853 23.3297595 13.0822689 23.4665498 12.7269555 23.7817812 12.5749867 24.0045039 12.4636004 24.26537 12.5223157 24.4828315 12.6164327 24.7638654 12.7342949 25.0155244 12.9454106 25.1303932 13.2294887 25.4434325 13.8814003 25.3649535 14.6205213 25.3750374 15.3199232 25.3750374 17.6797569 25.3741605 20.0400224 25.3754758 22.3998561 25.380737 22.497427 25.5188425 22.4978587 25.5876761 22.5423268 26.1861336 22.8017963 26.823173 22.9857131 27.4755575 23.0452918 28.2072979 23.0802619 28.9771817 22.9593776 29.5905458 22.5423268 30.229339 22.1339107 30.6782917 21.4906337 30.9531876 20.8002981 31.3052472 19.8802824 31.4060862 18.8847141 31.3850416 17.9072784 31.3473365 16.8327035 31.2429901 15.7434499 30.852787 14.7306123 30.5182646 13.8235485 29.9303294 13.0093066 29.1722832 12.3984093 28.6803643 11.9671115 28.1003209 11.6519489 27.5272923 11.338945 26.1843799 10.6874651 24.7542199 10.2376029 23.3240599 9.81278099 21.5146575 9.27009695 19.6855258 8.7887185 17.8340342 8.40534265M10.3881704 24.8555338C9.57444349 25.1469512 8.74975587 25.4094428 7.95005879 25.7366938 7.4024592 25.9689643 6.85442117 26.2115963 6.36074852 26.5444598 6.06875386 26.7236276 5.77281333 26.9252453 5.59700273 27.2252973 5.48081867 27.4467746 5.38567927 27.6963142 5.43829092 27.948876 5.5215927 28.5010581 5.95783097 28.9202675 6.41686761 29.2065042 6.80619383 29.4353209 7.21963371 29.628304 7.65499512 29.7569594 8.28238905 29.9654848 8.92512804 30.1269516 9.56523645 30.2927358 10.5872178 30.4978073 11.6219135 30.656252 12.6649395 30.6981298 13.5549533 30.7179894 14.4484745 30.7171259 15.3336655 30.6113522 15.8176927 30.5871753 16.2903207 30.4736304 16.770402 30.4162104 16.7585643 29.4944678 16.7677714 28.5722935 16.7655792 27.6505509 15.9356304 27.9592375 15.0969131 28.244179 14.2638953 28.5446628 13.556707 28.8011102 12.8026067 28.9323559 12.0485063 28.9185406 11.559218 28.9159502 11.0453775 28.8852974 10.6043165 28.6564808 10.4705953 28.5830867 10.3215289 28.4457967 10.3618645 28.2800126 10.3868551 28.1215678 10.5267144 28.0205431 10.6481596 27.9303117 10.881843 27.7852505 11.1392017 27.6790451 11.4000678 27.591404 13.1871101 26.9606471 14.9741525 26.3294585 16.7620718 25.7008602 16.7743478 24.6746391 16.7519879 23.6471228 16.773471 22.6209016 14.6470834 23.3708159 12.5163116 24.1103686 10.3881704 24.8555338M29.7672333 23.9696247C27.8933817 24.0598562 26.0287371 24.4004908 24.2535324 25.0014584 24.2609857 26.0626496 24.2574782 27.1242726 24.2552861 28.1858955 25.9362283 27.5996068 27.6189243 27.0180671 29.3007433 26.4335053 29.8549194 26.243976 30.4038343 26.0229305 30.9891389 25.9426288 31.6428386 25.8394454 32.3136372 25.8269253 32.9673369 25.937448 33.2111042 25.9771672 33.4474182 26.0682621 33.6482194 26.212028 33.760896 26.2944884 33.8213994 26.4568187 33.7490584 26.5841789 33.5771936 26.8587589 33.2654696 26.9956172 32.9682138 27.1000957 30.0658044 28.1258851 27.1585723 29.1387227 24.2566014 30.1658073 24.2561629 31.189438 24.2596704 32.2135005 24.2552861 33.2371313 28.1722234 31.845667 32.0935451 30.466291 36.0096056 29.0722363 36.5729887 28.8667331 37.1113813 28.5947434 37.6125072 28.2687876 37.8817035 28.0663065 38.1723829 27.870733 38.3525778 27.5814742 38.514797 27.337547 38.6270352 27.0349046 38.5586401 26.7417602 38.4775304 26.3216873 38.174575 25.9832114 37.834353 25.7362621 37.4524801 25.4452764 37.0017737 25.2643817 36.5602742 25.0826235 36.0819466 24.9366989 35.6194025 24.7432841 35.1349369 24.6159239 34.3685606 24.3914245 33.5833317 24.2381605 32.7924032 24.1276378 32.279878 24.0797158 31.7691066 23.9946651 31.2535124 23.9929381 30.7585245 23.9773959 30.2613444 23.9394037 29.7672333 23.9696247zM.293491919 46.7788272C.653549015 46.2572452 1.31314941 46.0380112 1.92909342 46.0049352 2.51175484 45.9790682 3.10003541 46.0558213 3.66022028 46.213144 3.5832813 46.5324539 3.5132582 46.8534601 3.45577009 47.1770106 2.92238419 46.9883081 2.34188397 46.9124031 1.77910565 46.9963651 1.5906484 47.0557321 1.36847631 47.1350296 1.28721492 47.3296687 1.19903768 47.5179471 1.22064975 47.7571115 1.36069596 47.9169785 1.48129132 48.0751493 1.66283271 48.1688645 1.84005169 48.2532505 2.2597581 48.4720605 2.72225641 48.6064845 3.12380868 48.8596426 3.30707904 48.9860096 3.50850354 49.0954146 3.65071096 49.2705474 4.1447629 49.8637939 4.10542893 50.7992491 3.59149389 51.3691729 3.25953249 51.715198 2.78709262 51.8988118 2.315085 51.9662359 1.53705046 52.0616472.743022987 51.9475776 0 51.7156221.0782356955 51.3865589.15603915 51.0570718.216552947 50.7250403.784950404 50.9485149 1.40219114 51.0846351 2.01683843 51.0316288 2.25241 51.0121224 2.51305157 50.9404579 2.65396227 50.739034 2.79227952 50.5859518 2.81475607 50.3548443 2.73954607 50.1691102 2.6699552 49.9731989 2.4862526 49.8485281 2.31897517 49.7374269 1.75922255 49.4291423 1.10653801 49.2858132.606002459 48.8753324-.0302568988 48.3978517-.167709668 47.416599.293491919 46.7788272zM6 46C7.66662642 46.0059234 9.33325284 46.0004231 10.9993963 46.0025386 11.0003622 46.3304421 10.9998793 46.6583457 10.9998793 46.9862492 10.4044141 46.9900571 9.80894888 46.9934419 9.21348369 46.9968267 9.21203487 48.6642691 9.21348369 50.3321345 9.21300075 52 8.74599763 52 8.27947746 52 7.81247434 52 7.8119914 50.3287497 7.81295728 48.6574995 7.81247434 46.9862492 7.20879917 46.9858261 6.60512399 46.9866723 6.00144882 46.9858261 6.00048294 46.6570764 6.00338058 46.3283266 6 46zM13 46C13.4308878 46.0046561 13.8617755 46.0046561 14.2926633 46 14.2886321 47.2740741 14.2926633 48.5481481 14.2904237 49.8222222 14.2877363 50.0715344 14.2899758 50.3373545 14.4279316 50.5595767 14.5954493 50.8575661 14.9640778 50.991746 15.3018006 51.0217989 15.7031264 51.0471958 16.1622324 50.9904762 16.4475499 50.6946032 16.6665771 50.4922751 16.7104721 50.1845503 16.7095763 49.9089947 16.7082326 48.6061376 16.7118158 47.3028571 16.7077846 46 17.1386724 46.0046561 17.5695602 46.0046561 18 46 17.990146 47.2182011 17.9928335 48.4364021 17.9874586 49.6546032 17.9785004 50.0308995 18.0300099 50.4224339 17.8727941 50.7801058 17.7384216 51.1851852 17.3989071 51.5034921 17.0020604 51.6884656 16.5514647 51.9238095 16.0278599 51.9961905 15.519484 52 15.099794 51.9953439 14.6711457 51.9644444 14.2805697 51.8099471 13.8102661 51.6562963 13.3816178 51.3417989 13.1733405 50.9079365 13.0533011 50.661164 13.0053749 50.3877249 13.0035833 50.1180952 13.0008958 48.7453968 13.0071665 47.3726984 13 46zM21.0045908 46C21.6660905 46.0054953 22.3275902 46.0012681 22.9890898 46.0021136 23.4310634 45.9928139 23.873037 46.0625616 24.2908043 46.2083979 24.8817718 46.4007327 25.3901041 46.8416232 25.6630509 47.4072143 25.9059486 47.8599408 25.9885839 48.3807242 25.9986003 48.8909398 26.0177984 49.6568973 25.8416767 50.4663943 25.3362659 51.0586163 24.843793 51.6576018 24.0708609 51.9429336 23.3183789 51.9818233 22.5458642 52.0131041 21.7725147 51.9797097 21 52 21.0116858 50.0001409 21.0033388 47.9998591 21.0045908 46M22.2157404 46.9857686C22.2149057 48.3283077 22.2174098 49.6712696 22.2149057 51.0142314 22.6264127 50.9935184 23.0450147 51.0307172 23.4502615 50.9372974 23.9076771 50.8510638 24.3254443 50.5462872 24.5395449 50.1265323 24.6730968 49.8462731 24.7640791 49.540651 24.7724261 49.2282655 24.7983018 48.7653938 24.7619924 48.2796956 24.5387102 47.8654361 24.3696834 47.5665774 24.1188561 47.3011131 23.7974967 47.1747217 23.2995982 46.9591377 22.7453575 46.9921093 22.2157404 46.9857686zM28 46C28.333331 46.0050719 28.666662 46.0033812 29 46.001268 29.0003369 48.0008453 28.9879531 50.0004227 28.996209 52 28.664254 51.9873204 28.331955 51.9957735 28 51.9953508 28.0041279 49.9970414 28.0037839 47.998732 28 46zM34.4652275 46.0369233C35.3071094 45.9241593 36.2329461 46.0619349 36.9083172 46.5575033 37.3933904 46.938612 37.7376058 47.4651269 37.8747323 48.0344583 38.0897503 48.8937544 38.0440415 49.8285092 37.6116734 50.6280319 37.3043049 51.2304294 36.6881687 51.6814857 35.996473 51.8786109 35.0930242 52.0905734 34.060378 52.0498766 33.2721341 51.5564278 32.5445243 51.1151218 32.1494695 50.3367954 32.0393953 49.5669474 31.9269889 48.7165537 32.0393953 47.7970602 32.5818377 47.0746919 32.9941499 46.4917949 33.7138305 46.1174691 34.4652275 46.0369233M34.635936 46.989483C34.4185859 47.0352669 34.2072992 47.1145409 34.0384564 47.249349 33.6723195 47.4981931 33.4992789 47.906009 33.3989994 48.2972918 33.2819288 48.8471226 33.2781975 49.4291718 33.4778238 49.9641652 33.5650437 50.2350533 33.7292223 50.4868648 33.9554343 50.6818704 34.5645743 51.216016 35.6933022 51.1659928 36.205894 50.5407033 36.4932065 50.2316619 36.596751 49.8242699 36.652721 49.4325632 36.7189521 48.9984639 36.6802396 48.5541904 36.5617698 48.1306893 36.4568261 47.8479312 36.3290279 47.5571186 36.0794951 47.3527868 35.7208208 46.9975375 35.1401322 46.8962195 34.635936 46.989483zM40.5701701 46.4809253C40.9879485 46.146982 41.5377708 46.0130656 42.0689771 46.0003521 42.6049456 45.9944191 43.1422129 46.0634962 43.6586995 46.2058883 43.5902965 46.5279656 43.5128018 46.8487715 43.4573866 47.1738154 42.9997786 47.0199811 42.5118654 46.9415807 42.0282815 46.9614986 41.7628949 46.9890447 41.4498858 47.0504937 41.3039881 47.2950182 41.1338462 47.5759882 41.285372 47.9573956 41.567643 48.1061445 41.9300062 48.3451597 42.3499493 48.4735669 42.7439164 48.6519808 43.0499986 48.7825069 43.3283732 48.970244 43.5760097 49.1884938 43.8929152 49.4931959 44.0093736 49.9441042 43.9994162 50.3674663 43.969544 50.7751484 43.8227804 51.2002057 43.4894235 51.4654957 43.1816096 51.7464658 42.7672947 51.872754 42.364236 51.9549685 41.8507799 52.0329451 41.3256346 52.0049753 40.8173737 51.9070807 40.5364015 51.8761443 40.2744782 51.7680789 40 51.7117154 40.0714336 51.3828575 40.1480624 51.0552709 40.2164655 50.7255655 40.7165007 50.9404249 41.2650243 51.0306913 41.8087856 51.035353 42.0473305 51.0442525 42.2941012 51.0010263 42.501908 50.8823663 42.7417518 50.7425169 42.8426247 50.4310342 42.7452152 50.178034 42.6859037 49.9987725 42.5365425 49.8695178 42.3815532 49.768233 41.9702688 49.5228609 41.4966423 49.4046246 41.0771322 49.1749326 40.7844709 49.0096561 40.4874803 48.8253092 40.2935272 48.5477294 39.8302911 47.9277306 39.9528105 46.960651 40.5701701 46.4809253zM45 51.0000988C45.332996 51.0000988 45.666498 50.9997036 46 51.000494 45.9994939 51.0297401 45.9994939 51.0890228 45.9994939 51.1182689 45.8643725 51.1182689 45.7297571 51.1182689 45.5951417 51.1186642 45.5936235 51.412311 45.5956478 51.7059579 45.5941296 52 45.5490891 51.9984191 45.4595142 51.9952574 45.4144737 51.9940717 45.4205466 51.7020057 45.4159919 51.4103349 45.417004 51.1190594 45.277834 51.1182689 45.138664 51.1182689 45 51.1186642 45 51.0890228 45 51.0297401 45 51.0000988zM46.0001052 51.0019747C46.0653278 51.0011848 46.1318128 51.0015798 46.1987186 51.0023697 46.2980253 51.2827804 46.4032231 51.5608215 46.5 51.8424171 46.598891 51.5612164 46.6973561 51.2800158 46.8054995 51.0023697 46.8686181 51.0011848 46.9321576 51.0003949 46.9965386 51 47.0032713 51.3329384 46.997801 51.6658768 46.9994842 51.9992101 46.9624546 51.9992101 46.8892369 51.9992101 46.8526281 51.9996051 46.8484202 51.7361769 46.8639894 51.4723539 46.8324301 51.2105055 46.7726778 51.4806477 46.6611681 51.7373618 46.572802 52 46.5370347 51.9996051 46.4655002 51.9992101 46.429733 51.9988152 46.3295847 51.7440758 46.2496344 51.4830174 46.1469613 51.2294629 46.1473821 51.485782 46.1473821 51.7424961 46.1469613 51.9992101 46.1103525 51.9992101 46.0371348 51.9992101 46.000526 51.9992101 45.9996844 51.6666667 46.0001052 51.3341232 46.0001052 51.0019747z"/>
  </g>
</svg>
